<svg xmlns="http://www.w3.org/2000/svg" width="13" height="15" viewBox="0 0 13 15">
    <g fill="none" fill-rule="evenodd">
        <g>
            <g transform="translate(-261 -45) translate(261 45)">
                <path fill="#FF969A" d="M6.48 14.4c-2.784 0-5.04-2.579-5.04-5.76V5.76c0-1.59 1.128-2.88 2.52-2.88H9c1.392 0 2.52 1.29 2.52 2.88v2.88c0 3.181-2.257 5.76-5.04 5.76"/>
                <path fill="#FB7579" d="M9 2.88c1.392 0 2.52 1.29 2.52 2.88v2.88c0 3.104-2.148 5.634-4.837 5.755l-.203.005c-.244 0-.485-.02-.72-.058 2.443-.4 4.32-2.8 4.32-5.702V5.76c0-1.59-1.128-2.88-2.52-2.88H9z"/>
                <rect width="1.44" height="3.6" x="5.76" fill="#FB7579" rx=".72"/>
                <path fill="#FDD" d="M1.45 5.76C.649 5.76 0 4.998 0 4.059 0 2.612 1.275 1.44 2.507 1.44h7.946c1.232 0 2.507 1.172 2.507 2.619 0 .94-.649 1.701-1.45 1.701H1.45z"/>
                <path fill="#FF969A" d="M10.453 1.44c1.232 0 2.507 1.172 2.507 2.619 0 .94-.649 1.701-1.45 1.701H9.35c.801 0 1.45-.762 1.45-1.701 0-1.447-1.275-2.619-2.507-2.619h2.16z"/>
            </g>
        </g>
    </g>
</svg>
