<svg xmlns="http://www.w3.org/2000/svg" width="44" height="44" viewBox="0 0 44 44">
    <g fill="none" fill-rule="evenodd">
        <g fill="#444" fill-rule="nonzero">
            <g>
                <path d="M21.809 12c4.528 0 8.2 3.671 8.2 8.2v3.99l.532 2.132c.382 1.525-.72 3.004-2.264 3.101l-.161.005h-2.878c-.432 1.486-1.804 2.571-3.43 2.571-1.625 0-2.997-1.085-3.429-2.571h-2.877c-1.626 0-2.82-1.528-2.426-3.106l.533-2.131V20.2c0-4.445 3.536-8.064 7.949-8.196zm1.212 17.428h-2.425c.288.349.724.571 1.212.571.489 0 .925-.222 1.213-.571zM21.81 14c-3.424 0-6.2 2.776-6.2 6.2v4.114c0 .082-.01.163-.03.243l-.563 2.25c-.079.315.16.621.486.621h12.614c.325 0 .563-.305.484-.62l-.562-2.252c-.02-.079-.03-.16-.03-.242V20.2c0-3.424-2.775-6.2-6.2-6.2z" transform="translate(-313 -30) translate(313 30)"/>
            </g>
        </g>
    </g>
</svg>
