<svg xmlns="http://www.w3.org/2000/svg" width="20" height="20" viewBox="0 0 20 20">
    <g fill="none" fill-rule="evenodd">
        <g fill="#444" fill-rule="nonzero">
            <path d="M13.169 0h-.014c3.222 0 5.945 2.358 6.426 5.52l.03.234L20 9.137c0 1.089-.457 2.07-1.187 2.753v1.61c0 3.512-2.785 6.374-6.267 6.496l-.233.004H7.686c-3.51 0-6.373-2.785-6.495-6.266l-.004-.234-.001-1.61C.466 11.215.01 10.25 0 9.176l.001-.006L0 9.137l.002-.02.001-.037.385-3.327C.76 2.553 3.414.118 6.61.004L6.83 0h6.339zm-.003 11.021l-.063.108c-.648 1.049-1.795 1.746-3.104 1.746-1.352 0-2.532-.745-3.167-1.854-.633 1.109-1.813 1.854-3.165 1.854-.527 0-1.027-.113-1.48-.317v.942c0 2.964 2.345 5.38 5.28 5.496l.22.004h4.625c2.964 0 5.38-2.343 5.496-5.278l.005-.222v-.942c-.453.204-.953.317-1.48.317-1.352 0-2.532-.745-3.167-1.854zm.5-9.997l.001 8.113c0 1.515 1.196 2.738 2.666 2.738 1.414 0 2.575-1.13 2.665-2.513l.005-.168-.385-3.326c-.3-2.603-2.388-4.607-4.951-4.844zm-1-.024H7.333v8.137c0 1.516 1.196 2.738 2.666 2.738 1.415 0 2.575-1.13 2.662-2.564l.005-.174V1zM1.413 5.639l-.031.23L1 9.16l.005.15c.087 1.433 1.248 2.564 2.662 2.564 1.47 0 2.666-1.223 2.666-2.738V1.024c-2.487.23-4.525 2.124-4.92 4.615z" transform="translate(-16 -228) translate(16 228)"/>
        </g>
    </g>
</svg>
