<svg xmlns="http://www.w3.org/2000/svg" width="21" height="19" viewBox="0 0 21 19">
    <g fill="none" fill-rule="evenodd">
        <g fill="#444">
            <path d="M20 9.5V11c0 .156-.076.29-.189.382-.086.07-.191.118-.311.118-.276 0-.5-.225-.5-.5V8c0-.275.224-.5.5-.5.12 0 .225.048.311.118.113.092.189.226.189.382v1.5zM2 11c0 .275-.224.5-.5.5S1 11.275 1 11V8c0-.156.076-.29.189-.382.086-.07.191-.118.311-.118.276 0 .5.225.5.5v3zm17.507-4.499C18.248 2.729 14.689 0 10.5 0S2.752 2.729 1.493 6.501C.669 6.505 0 7.175 0 8v3c0 .827.673 1.5 1.5 1.5S3 11.827 3 11V8c0-.473-.224-.89-.566-1.164C3.555 3.451 6.744 1 10.5 1c3.756 0 6.945 2.451 8.066 5.836C18.224 7.11 18 7.527 18 8v3c0 .473.224.89.566 1.164C17.445 15.549 14.256 18 10.5 18c-.276 0-.5.224-.5.5s.224.5.5.5c4.189 0 7.748-2.729 9.007-6.501C20.331 12.495 21 11.825 21 11V8c0-.825-.669-1.495-1.493-1.499z" transform="translate(-16 -285) translate(16 285)"/>
        </g>
    </g>
</svg>
