<svg xmlns="http://www.w3.org/2000/svg" width="20" height="19" viewBox="0 0 20 19">
    <g fill="none" fill-rule="evenodd">
        <g fill="#444" fill-rule="nonzero">
            <path d="M9.566 0c2.856 0 5.508 1.251 7.315 3.377.179.21.153.526-.057.705-.21.179-.526.153-.705-.057C14.501 2.12 12.126 1 9.566 1 4.835 1 1 4.806 1 9.5S4.835 18 9.566 18c2.56 0 4.935-1.12 6.553-3.024.179-.21.494-.236.705-.057.21.179.236.494.057.705C15.075 17.749 12.422 19 9.566 19 4.284 19 0 14.747 0 9.5S4.284 0 9.566 0zm7.755 5.784l.063.064 2.31 2.777c.2.242.302.548.306.855v.04c-.003.26-.077.518-.22.738l-.086.118-2.31 2.778c-.176.212-.491.241-.704.065-.188-.157-.232-.424-.116-.63l.051-.074L18.705 10H9.5c-.276 0-.5-.224-.5-.5 0-.245.177-.45.41-.492L9.5 9h9.205l-2.09-2.513c-.176-.212-.147-.528.065-.704.19-.157.46-.152.64 0z" transform="translate(-16 -397) translate(16 397)"/>
        </g>
    </g>
</svg>
