<svg xmlns="http://www.w3.org/2000/svg" width="20" height="19" viewBox="0 0 20 19">
    <g fill="none" fill-rule="evenodd">
        <g fill="#444" fill-rule="nonzero">
            <path d="M19.5 10c.245 0 .45.177.492.41l.008.09v2c0 3.511-2.785 6.373-6.267 6.496L13.5 19h-7C2.989 19 .127 16.214.004 12.733L0 12.5v-2c0-.276.224-.5.5-.5.245 0 .45.177.492.41L1 10.5v2c0 2.963 2.344 5.38 5.279 5.496L6.5 18h7c2.963 0 5.38-2.344 5.496-5.279L19 12.5v-2c0-.276.224-.5.5-.5zm-9-10h.022l.047.005L10.5 0c.038 0 .076.004.111.012l.045.013.037.014c.016.006.032.014.047.022l.036.022L10.8.1l.009.007c.018.014.035.03.052.047l.01.011 5 5.541c.185.205.169.521-.036.706-.182.165-.452.17-.64.025l-.066-.061L11 1.801v9.949c0 .276-.224.5-.5.5-.245 0-.45-.177-.492-.41L10 11.75V1.799L5.871 6.376c-.164.182-.432.215-.634.09l-.072-.054c-.182-.164-.215-.432-.09-.634l.054-.072 5-5.541.01-.011c.017-.017.034-.033.052-.047l-.062.058c.029-.032.06-.06.094-.082l.037-.022c.015-.008.031-.016.047-.022l.037-.014c.015-.005.03-.01.045-.013l.042-.007.048-.005h.021z" transform="translate(-16 -341) translate(16 341)"/>
        </g>
    </g>
</svg>
