<svg xmlns="http://www.w3.org/2000/svg" width="20" height="20" viewBox="0 0 20 20">
    <g fill="none" fill-rule="evenodd">
        <g fill="#AAA">
            <g>
                <g>
                    <path d="M16.13 12.546c.25-.493.851-.689 1.345-.437C19.562 13.173 20 14.437 20 15.31 20 18.356 14.848 20 10 20c-4.847 0-10-1.644-10-4.69 0-.873.438-2.137 2.526-3.2.491-.253 1.095-.057 1.345.436.251.492.056 1.093-.436 1.344C2.55 14.341 2 14.885 2 15.31 2 16.38 5.191 18 10 18s8-1.62 8-2.69c0-.425-.549-.969-1.434-1.42-.492-.25-.687-.852-.436-1.344zM10 0c3.31 0 6 2.691 6 6 0 2.967-2.167 5.432-5 5.909V15c0 .553-.448 1-1 1s-1-.447-1-1v-3.091C6.167 11.432 4 8.967 4 6c0-3.309 2.691-6 6-6zm0 2C7.794 2 6 3.794 6 6s1.794 4 4 4 4-1.794 4-4-1.794-4-4-4z" transform="translate(-50 -12) translate(45 12) translate(5)"/>
                </g>
            </g>
        </g>
    </g>
</svg>
