<svg xmlns="http://www.w3.org/2000/svg" width="20" height="20" viewBox="0 0 20 20">
    <g fill="none" fill-rule="evenodd">
        <g fill="#AAA">
            <path d="M9 2C5.14 2 2 5.141 2 9c0 3.676 2.875 6.739 6.544 6.976.292.018.561.164.737.398l.719.959.719-.959c.176-.234.445-.38.737-.398C15.125 15.739 18 12.676 18 9c0-3.859-3.14-7-7-7H9zm1 18c-.315 0-.611-.148-.8-.4l-1.253-1.671C3.454 17.404 0 13.569 0 9c0-4.963 4.038-9 9-9h2c4.962 0 9 4.037 9 9 0 4.569-3.454 8.404-7.947 8.929L10.8 19.6c-.189.252-.485.4-.8.4z" transform="translate(-170 -12) translate(170 12)"/>
        </g>
    </g>
</svg>
