<svg xmlns="http://www.w3.org/2000/svg" width="20" height="20" viewBox="0 0 20 20">
    <g fill="none" fill-rule="evenodd">
        <g fill="#FB7579" fill-rule="nonzero">
            <g>
                <g>
                    <path d="M16.13 12.55c.25-.5.84-.69 1.34-.44 2.09 1.06 2.53 2.33 2.53 3.2C20 18.36 14.85 20 10 20S0 18.36 0 15.31c0-.87.44-2.14 2.53-3.2.49-.25 1.09-.05 1.34.44s.05 1.09-.44 1.34c-.88.45-1.43 1-1.43 1.42C2 16.38 5.19 18 10 18c4.81 0 8-1.62 8-2.69 0-.42-.55-.97-1.43-1.42-.5-.25-.69-.85-.44-1.34zM10 0c3.31 0 6 2.69 6 6 0 2.97-2.17 5.43-5 5.91V15c0 .55-.45 1-1 1s-1-.45-1-1v-3.09C6.17 11.43 4 8.97 4 6c0-3.31 2.69-6 6-6z" transform="translate(-50 -12) translate(45 12) translate(5)"/>
                </g>
            </g>
        </g>
    </g>
</svg>
