<svg xmlns="http://www.w3.org/2000/svg" width="18" height="20" viewBox="0 0 18 20">
    <g fill="none" fill-rule="evenodd">
        <g fill="#AAA">
            <path d="M4.5 6.5C4.5 4.019 6.519 2 9 2s4.5 2.019 4.5 4.5S11.481 11 9 11 4.5 8.981 4.5 6.5m8.303 5.26C14.434 10.578 15.5 8.663 15.5 6.5 15.5 2.916 12.584 0 9 0S2.5 2.916 2.5 6.5c0 2.163 1.066 4.078 2.697 5.26C2.132 13.037 0 15.798 0 19c0 .553.448 1 1 1s1-.447 1-1c0-3.309 3.14-6 7-6s7 2.691 7 6c0 .553.448 1 1 1s1-.447 1-1c0-3.202-2.132-5.963-5.197-7.24" transform="translate(-291 -12) translate(291 12)"/>
        </g>
    </g>
</svg>
